<?xml version="1.0" encoding="UTF-8"?>
<svg width="640px" height="360px" viewBox="0 0 640 360" version="1.1" xmlns="http://www.w3.org/2000/svg" xmlns:xlink="http://www.w3.org/1999/xlink">
    <!-- Generator: Sketch 43.2 (39069) - http://www.bohemiancoding.com/sketch -->
    <title>ship-segment</title>
    <desc>Created with Sketch.</desc>
    <defs>
        <linearGradient x1="50%" y1="100%" x2="50%" y2="19.7172439%" id="linearGradient-1">
            <stop stop-color="#FFFFFF" offset="0%"></stop>
            <stop stop-color="#FBFAF9" offset="100%"></stop>
        </linearGradient>
        <rect id="path-2" x="0" y="0" width="640" height="360"></rect>
        <polygon id="path-4" points="0 42.1512821 0 0.0326923077 390.540575 0.0326923077 390.540575 84.2698718 195.270287 84.2698718 0 84.2698718"></polygon>
    </defs>
    <g id="Ships" stroke="none" stroke-width="1" fill="none" fill-rule="evenodd">
        <g id="segment">
            <g id="ship-segment">
                <g id="Group">
                    <mask id="mask-3" fill="white">
                        <use xlink:href="#path-2"></use>
                    </mask>
                    <use id="Mask" fill="url(#linearGradient-1)" xlink:href="#path-2"></use>
                </g>
                <g id="Segment_horizontal_2C_CMYK_cmyk" transform="translate(125.000000, 138.000000)">
                    <mask id="mask-5" fill="white">
                        <use xlink:href="#path-4"></use>
                    </mask>
                    <g id="Clip-2"></g>
                    <path d="M145.465033,40.2288654 L138.356436,38.6811026 C134.799422,37.9080385 132.841164,35.7068654 132.841164,32.4819872 C132.841164,28.3818269 136.469861,25.2896795 141.283506,25.2896795 C147.945711,25.2896795 149.914831,30.2045321 150.360136,31.7114295 C150.508933,32.2141282 150.857575,32.6372756 151.317,32.8726603 C151.773167,33.1068462 152.291242,33.1412821 152.775647,32.9697564 L156.524903,31.6437564 C157.457872,31.3147628 157.975947,30.3075128 157.705506,29.3510449 C156.739953,25.9409103 153.192714,18.0079038 141.148828,18.0079038 C132.239458,18.0079038 124.712708,24.8516026 124.712708,32.9527564 C124.712708,39.9164359 129.268944,45.0688526 136.899961,46.7353974 L143.677294,48.2167949 C147.757814,49.0822692 150.193961,51.5753846 150.193961,54.8863526 C150.193961,59.1159744 146.728181,61.7428013 141.148828,61.7428013 C134.586544,61.7428013 131.427047,57.4264359 130.656994,53.3867564 C130.555986,52.8601923 130.235583,52.4013013 129.778331,52.1279936 C129.321078,51.8559936 128.768247,51.7916987 128.258861,51.9542885 L124.1425,53.2730962 C123.241028,53.5612244 122.692542,54.467891 122.867406,55.3814231 C124.143586,62.0748462 129.633878,69.2262885 141.216167,69.2262885 C151.007458,69.2262885 158.390842,62.8304744 158.390842,54.3492179 C158.390842,47.1909103 153.680378,42.0448141 145.465033,40.2288654" id="Fill-1" fill="#44B07A" mask="url(#mask-5)"></path>
                    <path d="M187.551839,46.7677628 C187.574647,46.9146603 187.506222,47.0202564 187.463864,47.0700577 C187.419333,47.1219295 187.322669,47.2087821 187.167356,47.2087821 L172.070411,47.2087821 C171.949853,47.2087821 171.836897,47.153859 171.760869,47.0580705 C171.720683,47.0087051 171.657689,46.9039808 171.6881,46.766891 C172.377781,43.6121923 175.076767,40.4281795 179.553717,40.4281795 C183.948122,40.4281795 186.938186,42.7983718 187.551839,46.7677628 Z M179.487464,33.3486603 C171.539303,33.3486603 163.318528,40.0207244 163.318528,51.1863462 C163.318528,56.5763269 165.079114,61.1715577 168.409131,64.4769679 C171.496944,67.5398013 175.716486,69.2262885 180.292272,69.2262885 C187.097844,69.2262885 192.616375,65.6553077 195.053608,59.6744679 C195.251281,59.1904038 195.241506,58.6404103 195.026456,58.1666987 C194.813578,57.6928782 194.425836,57.3378397 193.936,57.1684936 L190.615758,56.0165256 C189.691478,55.6973397 188.672706,56.1484936 188.294739,57.0437179 C186.862158,60.4292244 184.169689,62.1455705 180.292272,62.1455705 C175.5981,62.1455705 172.026967,58.9733269 171.405711,54.25125 C171.386161,54.1044615 171.454586,54.0005 171.498031,53.9520064 C171.541475,53.9013333 171.637053,53.8175321 171.789108,53.8175321 L193.825217,53.8175321 C194.814664,53.8175321 195.634678,53.0435962 195.693328,52.0556346 C195.711792,51.7401538 195.722653,51.3957949 195.722653,51.0514359 C195.722653,40.1318782 189.501408,33.3486603 179.487464,33.3486603 L179.487464,33.3486603 Z" id="Fill-3" fill="#44B07A" mask="url(#mask-5)"></path>
                    <path d="M217.000656,59.8574359 C211.711294,59.8574359 208.424722,56.1741026 208.424722,50.2443718 C208.424722,44.4044359 211.791667,40.6307628 217.000656,40.6307628 C222.049986,40.6307628 225.442997,44.4942308 225.442997,50.2443718 C225.442997,55.9944038 222.049986,59.8574359 217.000656,59.8574359 Z M231.097292,34.3583077 L227.111264,34.3583077 C226.080544,34.3583077 225.240981,35.2003526 225.240981,36.2836667 C225.240981,36.5199231 225.057428,36.6195256 225.00095,36.6442628 C224.924922,36.6778269 224.775039,36.7179295 224.638189,36.5914103 C222.584353,34.7077885 219.699642,33.7530641 216.062256,33.7530641 C207.043189,33.7530641 200.497197,40.6890641 200.497197,50.2443718 C200.497197,59.7613205 207.043189,66.6687692 216.062256,66.6687692 C219.395531,66.6687692 222.414919,65.5696538 224.563247,63.575859 C224.705528,63.4450897 224.858669,63.4838846 224.937956,63.5174487 C224.993347,63.5426218 225.174728,63.6400449 225.174728,63.8755385 L225.174728,65.2487244 C225.174728,71.8991026 222.279156,74.9968295 216.062256,74.9968295 C212.1175,74.9968295 209.025342,72.5466282 208.185778,68.7555192 C208.077167,68.267641 207.786089,67.8522308 207.364678,67.5856795 C206.941094,67.3171667 206.438225,67.2328205 205.949475,67.3448462 L202.031872,68.2515128 C201.033736,68.4830833 200.415739,69.4672308 200.625358,70.4922436 C202.028614,77.3810795 208.232481,82.0095038 216.062256,82.0095038 C221.894672,82.0095038 226.336867,80.2271737 229.266108,76.7119006 C231.688136,73.8053583 232.967575,69.7715962 232.967575,65.0465769 L232.967575,36.2347372 C232.967575,35.2003526 232.129097,34.3583077 231.097292,34.3583077 L231.097292,34.3583077 Z" id="Fill-4" fill="#44B07A" mask="url(#mask-5)"></path>
                    <path d="M278.487578,33.4158974 C274.079053,33.4158974 270.490542,35.0905064 268.110872,38.2576282 C268.021811,38.3758654 267.892564,38.4495321 267.748111,38.4380897 C267.634069,38.4338397 267.545008,38.3831667 267.4831,38.2878141 C265.491172,35.1914167 262.047114,33.4158974 258.033933,33.4158974 C254.847283,33.4158974 251.781192,34.5422564 249.622003,36.507609 C249.452569,36.6608269 249.275533,36.6076474 249.208194,36.5777885 C249.126736,36.5412821 248.9888,36.4484359 248.9888,36.2347372 C248.9888,35.2003526 248.150322,34.3583077 247.118517,34.3583077 L243.334506,34.3583077 C242.3027,34.3583077 241.464222,35.2003526 241.464222,36.2347372 L241.464222,66.3393397 C241.464222,67.3745962 242.3027,68.216641 243.334506,68.216641 L247.320533,68.216641 C248.352339,68.216641 249.190817,67.3745962 249.190817,66.3393397 L249.190817,47.9563462 C249.190817,43.4938462 251.909353,40.4961795 255.956203,40.4961795 C261.258597,40.4961795 262.050372,44.6648846 262.050372,47.149609 L262.050372,66.3393397 C262.050372,67.3745962 262.889936,68.216641 263.920656,68.216641 L267.975108,68.2157692 C269.005828,68.2157692 269.845392,67.3737244 269.845392,66.3393397 L269.845392,47.8898718 C269.845392,43.5364551 272.599769,40.4961795 276.542353,40.4961795 C281.846919,40.4961795 282.637608,44.6648846 282.637608,47.149609 L282.637608,66.3393397 C282.637608,67.3745962 283.477172,68.216641 284.508978,68.216641 L288.493919,68.216641 C289.524639,68.216641 290.364203,67.3745962 290.364203,66.3393397 L290.364203,46.4758205 C290.364203,37.4539423 284.399281,33.4158974 278.487578,33.4158974" id="Fill-5" fill="#44B07A" mask="url(#mask-5)"></path>
                    <path d="M305.432908,47.2087821 C305.31235,47.2087821 305.200481,47.153859 305.123367,47.0580705 C305.083181,47.0087051 305.020186,46.9039808 305.050597,46.766891 C305.740278,43.6121923 308.44035,40.4281795 312.9173,40.4281795 C317.311706,40.4281795 320.302856,42.7983718 320.915422,46.7681987 C320.938231,46.9146603 320.869806,47.0202564 320.827447,47.0700577 C320.782917,47.1219295 320.686253,47.2087821 320.530939,47.2087821 L305.432908,47.2087821 Z M312.849961,33.3486603 C304.902886,33.3486603 296.681025,40.0207244 296.681025,51.1863462 C296.681025,56.5763269 298.441611,61.1715577 301.772714,64.4769679 C304.860528,67.5398013 309.080069,69.2262885 313.654769,69.2262885 C320.460342,69.2262885 325.978872,65.6553077 328.417192,59.6749038 C328.613778,59.1908397 328.605089,58.6412821 328.391125,58.1666987 C328.177161,57.6928782 327.789419,57.3378397 327.300669,57.1684936 L323.978256,56.0165256 C323.053975,55.6973397 322.036289,56.1484936 321.657236,57.0437179 C320.224656,60.4292244 317.533272,62.1455705 313.654769,62.1455705 C308.961683,62.1455705 305.39055,58.9724551 304.768208,54.25125 C304.748658,54.1044615 304.818169,54.0005 304.860528,53.9511346 C304.905058,53.9013333 305.000636,53.8175321 305.152692,53.8175321 L327.187714,53.8175321 C328.177161,53.8175321 328.998261,53.0435962 329.055825,52.0556346 C329.074289,51.7401538 329.086236,51.3957949 329.086236,51.0514359 C329.086236,40.1318782 322.864992,33.3486603 312.849961,33.3486603 L312.849961,33.3486603 Z" id="Fill-6" fill="#44B07A" mask="url(#mask-5)"></path>
                    <path d="M352.791697,33.4158974 C349.41715,33.4158974 346.460756,34.5686282 344.241831,36.7502949 C344.091947,36.8966474 343.927944,36.8588333 343.844314,36.8251603 C343.774803,36.7954103 343.611886,36.7016923 343.611886,36.4739359 L343.611886,36.2347372 C343.611886,35.2003526 342.772322,34.3583077 341.740517,34.3583077 L337.822914,34.3583077 C336.791108,34.3583077 335.951544,35.2003526 335.951544,36.2347372 L335.951544,66.3393397 C335.951544,67.3745962 336.791108,68.216641 337.822914,68.216641 L341.875194,68.216641 C342.907,68.216641 343.745478,67.3745962 343.745478,66.3393397 L343.745478,48.7638462 C343.745478,44.8322692 345.523442,40.6307628 350.510864,40.6307628 C355.000847,40.6307628 357.27625,43.1179936 357.27625,48.0244551 L357.27625,66.3393397 C357.27625,67.3745962 358.115814,68.216641 359.146533,68.216641 L363.1999,68.216641 C364.230619,68.216641 365.070183,67.3745962 365.070183,66.3393397 L365.070183,46.9478974 C365.070183,38.6011154 360.36515,33.4158974 352.791697,33.4158974" id="Fill-7" fill="#44B07A" mask="url(#mask-5)"></path>
                    <path d="M383.946794,41.5724103 L388.669206,41.5724103 C389.701011,41.5724103 390.540575,40.7308013 390.540575,39.6959808 L390.540575,36.2347372 C390.540575,35.2003526 389.701011,34.3583077 388.669206,34.3583077 L383.946794,34.3583077 C383.737175,34.3583077 383.566656,34.1876538 383.566656,33.9773333 L383.566656,26.0072756 C383.566656,24.972891 382.727092,24.131391 381.696372,24.131391 L378.180631,24.131391 C377.148825,24.131391 376.310347,24.972891 376.310347,26.0072756 L376.310347,30.1266154 C376.310347,32.0570962 375.578308,34.3583077 372.091892,34.3583077 L371.473894,34.3583077 C370.443175,34.3583077 369.603611,35.2003526 369.603611,36.2347372 L369.603611,39.6959808 C369.603611,40.7308013 370.443175,41.5724103 371.473894,41.5724103 L375.392583,41.5724103 C375.602203,41.5724103 375.772722,41.7430641 375.772722,41.9533846 L375.772722,58.5872308 C375.772722,64.7340385 379.501342,68.5525 385.503192,68.5525 C387.175803,68.5525 388.475878,68.3136282 389.102564,68.1718526 C389.948644,67.978641 390.540575,67.2276987 390.540575,66.3453333 L390.540575,63.1348397 C390.540575,62.6047885 390.31575,62.0974038 389.922578,61.7432372 C389.529406,61.387 388.997211,61.2153654 388.470447,61.2695256 C388.046864,61.3142051 387.636314,61.3379615 387.314825,61.3379615 C384.582169,61.3379615 383.566656,60.33725 383.566656,57.6452564 L383.566656,41.9533846 C383.566656,41.7430641 383.737175,41.5724103 383.946794,41.5724103" id="Fill-8" fill="#44B07A" mask="url(#mask-5)"></path>
                    <path d="M56.3971883,57.5677756 L4.34444444,57.5677756 C1.94524672,57.5677756 0,55.6160449 0,53.2088013 C0,50.8019936 1.94524672,48.8498269 4.34444444,48.8498269 L56.3971883,48.8498269 C58.7964078,48.8498269 60.7416328,50.8019936 60.7416328,53.2088013 C60.7416328,55.6160449 58.7964078,57.5677756 56.3971883,57.5677756" id="Fill-9" fill="#93C9A2" mask="url(#mask-5)"></path>
                    <path d="M45.2369622,84.2698718 C40.9960242,84.2698718 36.8080883,83.6364583 32.7899117,82.3883641 C30.4981086,81.6753449 29.21552,79.2340686 29.9257281,76.9341103 C30.6355017,74.6345769 33.0738211,73.3476987 35.3609539,74.0599115 C38.5458661,75.0496167 41.86828,75.5519231 45.2369622,75.5519231 C59.9779881,75.5519231 72.7779161,66.0600385 77.0884739,51.9339103 C77.7905361,49.6309551 80.2173428,48.3338333 82.5143592,49.0414038 C84.8083344,49.7471218 86.0992861,52.1841154 85.3967894,54.4858718 C79.9611292,72.3005641 63.8221697,84.2698718 45.2369622,84.2698718" id="Fill-10" fill="#44B07A" mask="url(#mask-5)"></path>
                    <path d="M86.12948,35.4216795 L34.0767361,35.4216795 C31.6775167,35.4216795 29.7322917,33.4703846 29.7322917,31.0627051 C29.7322917,28.6554615 31.6775167,26.7037308 34.0767361,26.7037308 L86.12948,26.7037308 C88.5286994,26.7037308 90.4739244,28.6554615 90.4739244,31.0627051 C90.4739244,33.4703846 88.5286994,35.4216795 86.12948,35.4216795" id="Fill-11" fill="#93C9A2" mask="url(#mask-5)"></path>
                    <path d="M9.23321519,35.4229872 C8.81149997,35.4229872 8.38342014,35.3611987 7.959587,35.2314103 C5.66560086,34.5255833 4.37456231,32.0885897 5.07714586,29.7869423 C10.5132189,11.9709423 26.6521892,0.00207051282 45.2369622,0.00207051282 C49.4799639,0.00207051282 53.6683342,0.63499359 57.6847731,1.88569231 C59.9771192,2.59871154 61.2584044,5.03995513 60.5477619,7.33953205 C59.8375539,9.6394359 57.4022756,10.9323077 55.1116672,10.2119872 C51.9283842,9.22228205 48.6064047,8.72001923 45.2369622,8.72001923 C30.4963708,8.72001923 17.6960083,18.211359 13.3854506,32.3389038 C12.8127442,34.2153333 11.0923442,35.4229872 9.23321519,35.4229872" id="Fill-12" fill="#44B07A" mask="url(#mask-5)"></path>
                    <path d="M75.3676394,14.4526154 C75.3676394,16.8594231 73.4228489,18.8111538 71.0236294,18.8111538 C68.62441,18.8111538 66.6796194,16.8594231 66.6796194,14.4526154 C66.6796194,12.0453718 68.62441,10.0940769 71.0236294,10.0940769 C73.4228489,10.0940769 75.3676394,12.0453718 75.3676394,14.4526154" id="Fill-13" fill="#93C9A2" mask="url(#mask-5)"></path>
                    <path d="M23.7934361,69.8260833 C23.7934361,72.2333269 21.8486456,74.1846327 19.4494261,74.1846327 C17.0502067,74.1846327 15.1054161,72.2333269 15.1054161,69.8260833 C15.1054161,67.4188397 17.0502067,65.4675449 19.4494261,65.4675449 C21.8486456,65.4675449 23.7934361,67.4188397 23.7934361,69.8260833" id="Fill-14" fill="#93C9A2" mask="url(#mask-5)"></path>
                </g>
            </g>
        </g>
    </g>
</svg>